<?xml version="1.0" standalone="no"?>
<!DOCTYPE svg PUBLIC "-//W3C//DTD SVG 20010904//EN"
 "http://www.w3.org/TR/2001/REC-SVG-20010904/DTD/svg10.dtd">
<svg version="1.0" xmlns="http://www.w3.org/2000/svg"
 width="225.000000pt" height="225.000000pt" viewBox="0 0 225.000000 225.000000"
 preserveAspectRatio="xMidYMid meet">

<g transform="translate(0.000000,225.000000) scale(0.100000,-0.100000)"
fill="#000000" stroke="none">
<path d="M1065 1888 c-116 -61 -612 -342 -627 -356 -17 -14 -18 -46 -18 -407
0 -361 1 -393 18 -407 18 -16 580 -333 645 -364 31 -15 43 -16 68 -7 45 17
655 362 669 378 8 10 11 120 10 402 0 353 -2 389 -18 405 -29 28 -665 378
-687 378 -11 -1 -38 -10 -60 -22z m190 -252 c89 -23 167 -68 236 -136 107
-105 108 -97 -25 -174 l-113 -65 -49 47 c-71 69 -166 90 -268 60 -55 -16 -138
-99 -154 -154 -53 -180 63 -347 242 -346 78 0 129 21 187 78 l46 45 112 -61
c61 -34 111 -65 111 -69 0 -20 -103 -130 -157 -167 -106 -72 -160 -88 -298
-88 -102 0 -129 3 -178 23 -164 65 -289 203 -333 366 -18 64 -18 196 0 260 47
180 197 331 376 381 60 16 203 17 265 0z"/>
</g>
</svg>
